<svg width="320" height="689" viewBox="0 0 320 689" fill="none" xmlns="http://www.w3.org/2000/svg">
<rect width="320" height="184" fill="white"/>
<path d="M46.8166 176.36L23.4355 161.697C8.85333 152.552 0 136.55 0 119.337V50C0 22.3858 22.3858 0 50 0H270C297.614 0 320 22.3858 320 50V120.442C320 137.597 311.205 153.555 296.7 162.716L272.115 178.243C266.16 182.004 259.262 184 252.22 184H224.394C207.245 184 196.79 165.136 205.879 150.594C211.229 142.034 210.014 130.923 202.941 123.722L191.001 111.565C173.971 94.2249 146.03 94.2242 128.999 111.564L117.063 123.718C109.99 130.919 108.772 142.036 114.122 150.595L124.929 167.886C129.313 174.9 124.271 184 116 184H97H73.381C63.9841 184 54.7775 181.352 46.8166 176.36Z" fill="#FF6C17"/>
<circle cx="160" cy="119" r="55" fill="white"/>
<path d="M59 184L-0.25 221.239L-0.25 146.761L59 184Z" fill="white"/>
<path d="M47.9587 267.46C49.8302 268.636 49.8302 271.364 47.9587 272.54L-2.65359 304.35C-4.65146 305.606 -7.25 304.17 -7.25 301.81L-7.25 238.19C-7.25 235.83 -4.65147 234.394 -2.6536 235.65L47.9587 267.46Z" fill="#132531"/>
<path d="M274.041 272.54C272.17 271.364 272.17 268.636 274.041 267.46L324.654 235.65C326.651 234.394 329.25 235.83 329.25 238.19V301.81C329.25 304.17 326.651 305.606 324.654 304.35L274.041 272.54Z" fill="#132531"/>
<path d="M263 184L322.25 146.761V221.239L263 184Z" fill="white"/>
<rect x="-80" y="433.735" width="120" height="493.333" rx="8" transform="rotate(-58.884 -80 433.735)" fill="#FF6C17"/>
</svg>
