<svg width="2048" height="4408" viewBox="0 0 2048 4408" fill="none" xmlns="http://www.w3.org/2000/svg">
<rect width="2048" height="1177.6" fill="white"/>
<path d="M299.626 1128.7L149.987 1034.86C56.6613 976.333 0 873.919 0 763.759V320C0 143.269 143.269 0 320 0H1728C1904.73 0 2048 143.269 2048 320V770.826C2048 880.622 1991.71 982.752 1898.88 1041.38L1741.53 1140.76C1703.43 1164.83 1659.28 1177.6 1614.21 1177.6H1436.12C1326.37 1177.6 1259.46 1056.87 1317.63 963.799C1351.86 909.018 1344.09 837.909 1298.82 791.821L1222.41 714.017C1113.41 603.04 934.591 603.035 825.595 714.012L749.203 791.794C703.937 837.883 696.144 909.03 730.382 963.811L799.545 1074.47C827.601 1119.36 795.336 1177.6 742.4 1177.6H620.8H469.638C409.499 1177.6 350.576 1160.65 299.626 1128.7Z" fill="#FF6C17"/>
<circle cx="1024" cy="761.6" r="352" fill="white"/>
<path d="M377.6 1177.6L-1.60004 1415.93L-1.60004 939.27L377.6 1177.6Z" fill="white"/>
<path d="M306.936 1711.74C318.913 1719.27 318.913 1736.73 306.936 1744.26L-16.983 1947.84C-29.7693 1955.88 -46.4 1946.69 -46.4 1931.59L-46.4 1524.41C-46.4 1509.31 -29.7694 1500.12 -16.983 1508.16L306.936 1711.74Z" fill="#132531"/>
<path d="M1753.86 1744.26C1741.89 1736.73 1741.89 1719.27 1753.86 1711.74L2077.78 1508.16C2090.57 1500.12 2107.2 1509.31 2107.2 1524.41V1931.59C2107.2 1946.69 2090.57 1955.88 2077.78 1947.84L1753.86 1744.26Z" fill="#132531"/>
<path d="M1683.2 1177.6L2062.4 939.27V1415.93L1683.2 1177.6Z" fill="white"/>
<rect x="-512" y="2775.9" width="768" height="3157.33" rx="51.2" transform="rotate(-58.884 -512 2775.9)" fill="#FF6C17"/>
</svg>
