<svg width="1920" height="1080" viewBox="0 0 1920 1080" fill="none" xmlns="http://www.w3.org/2000/svg">
<rect x="317.115" width="1268.46" height="288.554" fill="white"/>
<path d="M536.755 285.023L408.219 253.133C354.697 239.854 317.115 191.808 317.115 136.664V120C317.115 53.7258 370.841 0 437.115 0H1465.58C1531.85 0 1585.58 53.7258 1585.58 120V138.392C1585.58 193.462 1548.09 241.463 1494.67 254.813L1369.96 285.972C1363.1 287.687 1356.05 288.554 1348.98 288.554H1140.34C1114.23 288.554 1104.34 254.436 1126.4 240.474C1144.34 229.116 1141.9 202.216 1122.2 194.281L988.654 140.487C964.716 130.844 937.973 130.845 914.035 140.488L780.507 194.275C760.809 202.209 758.35 229.117 776.293 240.475L788.611 248.272C807.09 259.97 798.803 288.554 776.932 288.554H701.617H565.651C555.912 288.554 546.208 287.368 536.755 285.023Z" fill="#FF6C17"/>
<ellipse cx="951.345" cy="186.619" rx="218.017" ry="86.2525" fill="white"/>
<path d="M550.987 288.554L316.124 346.953V230.155L550.987 288.554Z" fill="white"/>
<path d="M495.139 416.434C502.423 418.245 502.423 428.598 495.139 430.409L297.314 479.599C292.772 480.728 288.376 477.292 288.376 472.611V374.232C288.376 369.551 292.772 366.115 297.314 367.245L495.139 416.434Z" fill="#132531"/>
<path d="M1415.48 430.409C1408.2 428.598 1408.2 418.245 1415.48 416.434L1613.31 367.244C1617.85 366.115 1622.24 369.551 1622.24 374.232V472.611C1622.24 477.292 1617.85 480.728 1613.31 479.599L1415.48 430.409Z" fill="#132531"/>
<path d="M1359.63 288.554L1594.49 230.155V346.953L1359.63 288.554Z" fill="white"/>
<rect width="293.907" height="1721.26" rx="19.2" transform="matrix(0.836366 -0.548171 0.97265 0.232275 0 680.195)" fill="#FF6C17"/>
</svg>
