<svg width="320" height="184" viewBox="0 0 320 184" fill="none" xmlns="http://www.w3.org/2000/svg">
<path d="M46.8166 176.36L23.4355 161.697C8.85333 152.552 0 136.55 0 119.337V50C0 22.3858 22.3858 0 50 0H270C297.614 0 320 22.3858 320 50V120.442C320 137.597 311.205 153.555 296.7 162.716L272.115 178.243C266.16 182.004 259.262 184 252.22 184H224.394C207.245 184 196.79 165.136 205.879 150.594C211.229 142.034 210.014 130.923 202.941 123.722L191.001 111.565C173.971 94.2249 146.03 94.2242 128.999 111.564L117.063 123.718C109.99 130.919 108.772 142.036 114.122 150.595L124.929 167.886C129.313 174.9 124.271 184 116 184H97H73.381C63.9841 184 54.7775 181.352 46.8166 176.36Z" fill="#FF6C17"/>
</svg>
